<svg version="1.1" xmlns="http://www.w3.org/2000/svg" xmlns:xlink="http://www.w3.org/1999/xlink" viewBox="0 0 850 267">
    <path d="M763.5,94.126V1.672l-84,76.114v-26.66h-422v25.93l-86-76.823V122.5v8.627h-12v-37h-85v-43h-74v117.001h86v43h159v-22.631
    	l86,76.822V131.126h12v80h95.417l79.583-82.915v138.545l86-76.096v76.105l62.826-56.27l11.613-10.234l36.141-32.139h60.42v43h74
    	v-117L763.5,94.126L763.5,94.126z M144.5,195.127h-42v-43h-86V66.126h43v43h85V195.127z M316.613,195.127h-43.113v-43h-43v43h-43
    	V66.126h43v43h43v-43h43.133L316.613,195.127z M488.634,152.127h-43.135v43h-86V66.126h86v43h43.146L488.634,152.127z
    	 M663.416,109.126H621.5v43h43v43h-43v-43h-43v43h-44V66.126h128.875L663.416,109.126z M834.67,195.127h-43.171v-43h-85V66.126h42
    	v43h86.13L834.67,195.127z"/>
</svg>
